<svg fill="#000000" xmlns="http://www.w3.org/2000/svg"  viewBox="0 0 50 50" width="50px" height="50px"><path d="M25 8.141L15-.092v36.48l10-3.659 10 3.659v-36.48L25 8.141zM17 4.146l7 5.763v21.058l-7 2.562V4.146zM33 33.527l-7-2.562V9.908l7-5.763V33.527zM22.824 40L24 40 24 48 26 48 26 40 27.176 40 28 38 22 38zM18 38h-3v10h3c1.103 0 2-.897 2-2v-2c0-.366-.106-.705-.278-1C19.894 42.705 20 42.366 20 42v-2C20 38.897 19.103 38 18 38zM18.001 42L18.001 42C18.001 42 18 42 18.001 42 18 42 18 42 18.001 42zM17 40h1l-.001 2H17V40zM17.999 46H17v-2h1L17.999 46zM18 46C18 46 18 46 18 46L18 46zM33 38h-1c-1.103 0-2 .897-2 2v1.465c0 .671.334 1.294.892 1.664L33 44.535V46h-1v-1h-2v1c0 1.103.897 2 2 2h1c1.103 0 2-.897 2-2v-1.465c0-.672-.334-1.295-.891-1.664L32 41.465V40h1v1h2v-1C35 38.897 34.103 38 33 38z"/></svg>