<?xml version="1.0" standalone="no"?>
<!DOCTYPE svg PUBLIC "-//W3C//DTD SVG 20010904//EN"
 "http://www.w3.org/TR/2001/REC-SVG-20010904/DTD/svg10.dtd">
<svg version="1.0" xmlns="http://www.w3.org/2000/svg"
 width="512.000000pt" height="512.000000pt" viewBox="0 0 512.000000 512.000000"
 preserveAspectRatio="xMidYMid meet">

<g transform="translate(0.000000,512.000000) scale(0.100000,-0.100000)"
fill="#000000" stroke="none">
<path d="M2330 5110 c-494 -48 -950 -230 -1350 -538 -195 -150 -448 -432 -594
-662 -63 -99 -186 -351 -230 -471 -49 -134 -102 -340 -128 -499 -31 -195 -31
-565 0 -760 45 -276 116 -498 237 -745 132 -269 269 -460 489 -681 221 -220
412 -357 681 -489 247 -121 469 -192 745 -237 195 -31 565 -31 760 0 276 45
498 116 745 237 269 132 460 269 681 489 220 221 357 412 489 681 88 179 132
296 180 476 63 240 78 371 78 649 0 278 -15 409 -78 649 -48 180 -92 297 -180
476 -132 269 -269 460 -489 681 -221 220 -412 357 -681 489 -246 121 -474 193
-740 235 -147 23 -475 34 -615 20z m426 -411 c508 -49 958 -262 1319 -624 362
-361 575 -811 624 -1319 44 -446 -70 -933 -307 -1316 -168 -272 -440 -544
-712 -712 -383 -237 -870 -351 -1316 -307 -508 49 -958 262 -1319 624 -362
361 -575 811 -624 1319 -44 446 70 933 307 1316 168 272 440 544 712 712 383
237 870 351 1316 307z"/>
<path d="M1780 3629 c-345 -22 -501 -43 -557 -75 -61 -35 -96 -100 -96 -174 1
-65 17 -101 65 -147 61 -59 94 -62 323 -38 204 21 646 38 830 30 570 -22 957
-95 1355 -255 91 -36 113 -41 162 -38 176 13 251 229 122 350 -54 50 -322 151
-579 218 -443 114 -1072 164 -1625 129z"/>
<path d="M1925 2829 c-218 -7 -488 -31 -555 -49 -92 -25 -153 -103 -152 -195
1 -87 37 -146 114 -186 45 -23 89 -23 263 -3 184 21 753 30 952 15 401 -31
696 -94 978 -209 128 -52 185 -57 253 -23 113 58 146 202 68 304 -26 34 -50
50 -131 85 -259 112 -590 194 -955 236 -133 16 -497 37 -575 34 -22 0 -139 -5
-260 -9z"/>
<path d="M1810 2054 c-147 -11 -369 -35 -405 -45 -71 -20 -145 -119 -145 -195
0 -76 62 -162 136 -190 43 -16 55 -16 222 0 243 24 589 31 797 17 366 -26 605
-75 865 -178 137 -54 194 -59 261 -22 24 13 57 44 74 67 26 39 30 52 30 112 0
96 -32 141 -135 192 -205 100 -528 182 -880 224 -129 15 -686 27 -820 18z"/>
</g>
</svg>
